HIERARCHY
ROOT Hips
{
  OFFSET 0 36.382 -0.143039
  CHANNELS 6 Xposition Yposition Zposition Zrotation Xrotation Yrotation
  JOINT RightUpLeg
  {
    OFFSET -4.29018 -2.89678 0.143039
    CHANNELS 3 Zrotation Xrotation Yrotation
    JOINT RightLeg
    {
      OFFSET -0.168642 -10.8761 -0.19478
      CHANNELS 3 Zrotation Xrotation Yrotation
      JOINT RightFoot
      {
        OFFSET 0.157921 -15.9551 -0.639646
        CHANNELS 3 Zrotation Xrotation Yrotation
        JOINT RightToeBase
        {
          OFFSET -0.0414729 -3.68646 5.89146
          CHANNELS 3 Zrotation Xrotation Yrotation
          End Site
          {
            OFFSET -0.058008 -0.022426 3.3914
          }
        }
      }
    }
  }
  JOINT LeftUpLeg
  {
    OFFSET 4.29018 -2.89678 0.143039
    CHANNELS 3 Zrotation Xrotation Yrotation
    JOINT LeftLeg
    {
      OFFSET 0.168642 -10.8761 -0.194801
      CHANNELS 3 Zrotation Xrotation Yrotation
      JOINT LeftFoot
      {
        OFFSET -0.157921 -15.9551 -0.639645
        CHANNELS 3 Zrotation Xrotation Yrotation
        JOINT LeftToeBase
        {
          OFFSET 0.0414729 -3.68646 5.89146
          CHANNELS 3 Zrotation Xrotation Yrotation
          End Site
          {
            OFFSET 0 0 0
          }
        }
      }
    }
  }
  JOINT Spine
  {
    OFFSET 5.86144e-05 2.32248 -0.145562
    CHANNELS 3 Zrotation Xrotation Yrotation
    JOINT Spine1
    {
      OFFSET 0 6.08593 -0.152112
      CHANNELS 3 Zrotation Xrotation Yrotation
      JOINT Spine2
      {
        OFFSET 0 6.33752 -0.148988
        CHANNELS 3 Zrotation Xrotation Yrotation
        JOINT RightShoulder
        {
          OFFSET -2.05493 4.15599 -0.189712
          CHANNELS 3 Zrotation Xrotation Yrotation
          JOINT RightArm
          {
            OFFSET -4.33325 -1.05627 -0.0141634
            CHANNELS 3 Zrotation Xrotation Yrotation
            JOINT RightForeArm
            {
              OFFSET -10.3086 -2.91358e-05 -2.42704e-05
              CHANNELS 3 Zrotation Xrotation Yrotation
              JOINT RightHand
              {
                OFFSET -10.1392 -4.87675e-05 0
                CHANNELS 3 Zrotation Xrotation Yrotation
                End Site
                {
                  OFFSET -3.93579 -5.00749e-05 0
                }
              }
            }
          }
        }
        JOINT LeftShoulder
        {
          OFFSET 2.05493 4.15599 -0.189712
          CHANNELS 3 Zrotation Xrotation Yrotation
          JOINT LeftArm
          {
            OFFSET 4.33325 -1.05627 -0.0141634
            CHANNELS 3 Zrotation Xrotation Yrotation
            JOINT LeftForeArm
            {
              OFFSET 10.3086 -2.72925e-05 -2.53457e-05
              CHANNELS 3 Zrotation Xrotation Yrotation
              JOINT LeftHand
              {
                OFFSET 10.1392 -4.95574e-05 0
                CHANNELS 3 Zrotation Xrotation Yrotation
                End Site
                {
                  OFFSET 3.93579 -5.00749e-05 0
                }
              }
            }
          }
        }
        JOINT Neck
        {
          OFFSET 0 5.46156 -0.234248
          CHANNELS 3 Zrotation Xrotation Yrotation
          JOINT Head
          {
            OFFSET 0 3.87151 0.0520564
            CHANNELS 3 Zrotation Xrotation Yrotation
            End Site
            {
              OFFSET 0 12.6919 0
            }
          }
        }
      }
    }
  }
}
MOTION
Frames:	9
Frame Time:	0.0333333
0 36.382 -0.143039 0 0 -0 0.0228079 -2.05751 0.000192991 -0.000255441 0.464497 -0.00981053 -0.0228273 1.59301 0.0102576 -5.50886e-25 2.3697e-23 -0 -0.0228097 -2.05762 -0.000190429 0.000257213 0.464614 0.0098079 0.0228273 1.593 -0.0102576 3.65077e-26 0 3.70265e-25 0 0 -0 0 0 -0 0 0 -0 0 0 -0 0.000113691 -1.70774e-06 0.000134896 -0.000109038 8.53821e-06 -0.000144492 -4.65377e-06 -6.83021e-06 9.59617e-06 0 0 -0 -0.000123937 -1.70773e-06 -0.000140873 0.000123746 -1.70706e-06 0.000150835 1.90424e-07 3.41509e-06 -9.96251e-06 0 0 -0 0 0 -0 
-3.94151 35.6917 7.41826 -3.46716 -1.27967 -6.85168 8.96313 0.973527 -3.55697 0.0306101 6.38402 0.531218 -25.4047 -17.1122 -3.53912 -3.29059e-06 -16.9698 5.02158e-07 4.51997 -17.6976 -4.65854 -0.165313 32.3631 0.0628389 5.03461 -16.7906 -6.53544 1.90568e-06 -12.8258 2.39015e-06 0.289261 1.86127 0.791554 0.553188 3.72633 1.57495 0.553188 3.72633 1.57495 3.31753 12.6202 -15.5111 63.7387 -8.68409 41.3659 0.000549745 -0.000127036 71.6808 10.6143 -53.5059 14.7574 -1.41002 18.4627 11.1046 -73.1329 -5.89077 -43.3728 -0.000493545 -0.000219774 -75.2526 -64.6285 -60.2669 -67.0105 -2.75439 6.89861 2.39135 5.70939 11.3299 -5.20463 
-4.05001 35.724 7.43344 -3.05667 -1.61557 -7.06313 8.79341 1.27802 -2.85748 0.0296306 6.30237 0.521348 -25.6728 -16.4913 -3.77069 -4.73418e-08 -18.0499 6.89355e-07 3.90526 -17.7916 -3.78789 -0.144677 33.6058 0.0487341 5.55567 -16.9902 -6.37275 -7.86866e-08 -15.4058 8.48303e-06 0.18057 1.86389 0.788456 0.335714 3.73007 1.57226 0.335714 3.73007 1.57226 3.06691 12.4314 -15.2693 64.0001 -7.45758 41.6097 0.00226734 -0.000231722 69.9105 11.5783 -54.0087 14.9534 -1.54511 18.4853 11.1113 -72.9707 -5.69304 -44.2201 0.000157961 -0.000224107 -73.7655 -63.4812 -61.4449 -66.4161 -2.90023 6.85505 2.43051 5.72136 11.4817 -5.0837 
-4.11461 35.7548 7.49769 -2.73092 -1.83342 -7.20716 8.56419 1.65491 -3.32959 0.0281608 6.16792 0.505981 -26.052 -16.6333 -3.17247 2.54806e-06 -17.99 -7.36153e-07 3.19423 -17.5073 -3.29973 -0.134868 34.4286 0.0408759 5.76683 -17.4124 -6.18133 -9.48462e-07 -15.2431 -5.27025e-07 0.113932 1.80855 0.797056 0.20282 3.61851 1.59167 0.202821 3.61851 1.59167 2.94717 12.4656 -15.0435 64.3618 -6.26205 41.5456 -9.52526e-05 -0.000197036 67.1735 13.6652 -54.4692 16.563 -1.53235 18.4959 10.9825 -73.4088 -5.14048 -44.2837 0.00018164 -0.000117039 -71.7021 -58.3947 -61.8856 -61.5078 -3.04496 6.88438 2.50733 5.47572 11.5119 -4.92862 
-4.15785 35.7653 7.58462 -2.54372 -1.89486 -7.40651 8.47735 1.99849 -3.52505 0.0275751 6.08388 0.503318 -26.65 -17.3117 -2.87811 3.39856e-06 -12.4903 2.39981e-06 2.89059 -16.8801 -2.85145 -0.141788 34.4218 0.0529405 4.56558 -17.4296 -6.63208 1.57641e-06 -12.0745 2.5521e-06 0.108458 1.71744 0.815136 0.192564 3.43624 1.62814 0.192565 3.43624 1.62814 2.81843 12.1606 -15.0519 64.9428 -4.87943 41.0737 -0.00169264 -0.000139616 63.3701 15.0369 -54.781 17.1654 -1.54496 18.2623 11.1079 -74.1235 -3.99621 -43.714 -0.00072322 -0.000129889 -68.7092 -50.7835 -62.4712 -53.7725 -3.23513 6.60226 2.60407 5.14783 11.5734 -4.72254 
-4.20355 35.761 7.70798 -2.6278 -2.07769 -7.74171 8.64891 2.54478 -3.20645 0.0262855 5.94127 0.489688 -27.0273 -17.3875 -2.99016 -5.25558e-06 -13.6279 -2.98565e-06 3.15899 -15.4299 -2.12212 -0.166046 32.8549 0.0746866 2.9551 -15.6488 -7.20797 4.44763e-07 -14.4072 -2.14885e-06 0.150451 1.62066 0.836618 0.277364 3.24334 1.66997 0.277365 3.24334 1.66997 2.8271 12.1729 -14.983 65.8259 -3.66426 40.5591 0.00175628 -0.000135549 57.9965 18.7266 -56.2879 19.9529 -1.47209 18.2971 11.1053 -75.2007 -2.68605 -42.8178 2.94644e-06 -0.000132298 -64.1729 -47.4911 -63.1649 -51.5029 -3.27025 6.56331 2.58174 4.7721 11.1932 -4.25723 
-4.24239 35.7337 7.81139 -2.85953 -2.04654 -8.06787 8.93819 2.79595 -2.73431 0.025745 5.88447 0.483469 -27.0443 -17.4232 -3.19487 1.1326e-05 -14.6048 7.72075e-07 4.03388 -13.0163 -0.941151 -0.16333 29.6839 0.0754031 1.07365 -16.2733 -6.82519 7.62639e-08 -13.262 4.28176e-06 0.225302 1.49421 0.818697 0.429434 2.99148 1.6323 0.429433 2.99148 1.6323 3.20207 12.1693 -14.9257 66.5481 -2.61504 39.8702 0.00236221 -0.00023595 51.7534 19.8749 -57.246 20.6066 -1.32405 18.3357 11.1752 -77.0513 -1.91002 -41.5199 -0.000141934 -0.000139257 -58.0915 -43.0398 -62.5153 -48.0528 -3.25537 6.32682 2.69173 4.49435 10.8892 -3.82604 
-4.27652 35.6915 7.94233 -3.20258 -2.10687 -8.19324 9.41848 3.15928 -2.07249 0.0267357 5.94089 0.500833 -27.5496 -17.3297 -3.87749 3.39456e-06 -15.259 7.54585e-07 5.0042 -10.0361 0.815593 -0.101356 26.224 0.0431212 0.307511 -17.6212 -8.30267 2.91541e-07 -12.7946 3.99284e-06 0.33404 1.4033 0.769684 0.649488 2.81094 1.53191 0.649489 2.81093 1.53191 3.62537 12.0686 -15.1213 67.8228 -2.14258 38.6866 0.0027605 -0.000148024 44.6478 22.4626 -58.4145 21.993 -1.41534 18.3042 11.0356 -78.8071 -2.00137 -39.6951 -0.00182895 -0.000218899 -51.3243 -39.7425 -64.4595 -45.1268 -3.32763 5.9745 2.74639 4.34569 10.633 -3.45742 
-4.2758 35.6624 8.05722 -3.15698 -2.06628 -7.95029 9.42532 3.26006 -1.69272 0.0287349 6.10592 0.528305 -27.7722 -17.3597 -4.66209 5.26023e-06 -15.9234 4.44473e-08 5.2431 -7.81233 1.34862 -0.0354302 23.1916 0.0169108 -0.98124 -18.065 -9.5229 -1.57486e-07 -13.5729 -3.21196e-06 0.346467 1.31096 0.667365 0.677899 2.62584 1.32728 0.677899 2.62584 1.32728 4.45401 12.2038 -15.683 69.9386 -2.89845 37.22 -0.0101764 -0.000132005 37.3679 25.4022 -60.5389 24.522 -1.47534 18.4331 11.1486 -80.9401 -3.05333 -38.2916 0.000189842 -0.000125619 -42.2694 -40.3315 -65.586 -45.8281 -3.34257 5.54957 2.76069 4.31697 10.4429 -3.26422 
